<svg viewBox="0 0 288 288" xmlns="http://www.w3.org/2000/svg"><path d="m225.71 23.21-56.44 83.79c-3.92 5.81 3.61 12.47 8.9 7.88l55.57-48.15a2.25 2.25 0 0 1 3.72 1.7v150.87a2.25 2.25 0 0 1 -4 1.44l-167.86-201.05a28.78 28.78 0 0 0 -22-10.19h-5.83a28.77 28.77 0 0 0 -28.77 28.77v212.46a28.77 28.77 0 0 0 28.77 28.77 28.78 28.78 0 0 0 24.52-13.71l56.44-83.79c3.92-5.81-3.61-12.47-8.9-7.88l-55.57 48.15a2.25 2.25 0 0 1 -3.72-1.7v-150.87a2.25 2.25 0 0 1 4-1.44l167.86 201.05a28.78 28.78 0 0 0 22 10.19h5.86a28.77 28.77 0 0 0 28.74-28.77v-212.46a28.77 28.77 0 0 0 -28.77-28.77 28.78 28.78 0 0 0 -24.52 13.71z" fill="#808080"/></svg>